<?xml version="1.0" encoding="iso-8859-1"?>
<!-- Generator: Adobe Illustrator 19.0.0, SVG Export Plug-In . SVG Version: 6.00 Build 0)  -->
<svg version="1.1" id="Capa_1" xmlns="http://www.w3.org/2000/svg" xmlns:xlink="http://www.w3.org/1999/xlink" x="0px" y="0px"
	 viewBox="0 0 512.008 512.008" style="enable-background:new 0 0 512.008 512.008;" xml:space="preserve">
<g>
	<g>
		<path d="M507.328,484.708L416,393.38c19.712-24.64,32-55.456,32-89.376c0-79.392-64.608-144-144-144s-144,64.608-144,144
			s64.608,144,144,144c33.92,0,64.736-12.288,89.376-32l91.296,91.296c3.136,3.136,7.232,4.704,11.328,4.704
			s8.192-1.568,11.328-4.672C513.568,501.092,513.568,490.948,507.328,484.708z M304,416.004c-61.76,0-112-50.24-112-112
			s50.24-112,112-112s112,50.24,112,112S365.76,416.004,304,416.004z"/>
	</g>
</g>
<g>
	<g>
		<path d="M112,0.004H16c-8.832,0-16,7.168-16,16v96c0,8.832,7.168,16,16,16h96c8.832,0,16-7.168,16-16v-96
			C128,7.172,120.832,0.004,112,0.004z M96,96.004H32v-64h64V96.004z"/>
	</g>
</g>
<g>
	<g>
		<path d="M368,0.004h-96c-8.832,0-16,7.168-16,16v96c0,8.832,7.168,16,16,16h96c8.832,0,16-7.168,16-16v-96
			C384,7.172,376.832,0.004,368,0.004z M352,96.004h-64v-64h64V96.004z"/>
	</g>
</g>
<g>
	<g>
		<path d="M112,256.004H16c-8.832,0-16,7.168-16,16v96c0,8.832,7.168,16,16,16h96c8.832,0,16-7.168,16-16v-96
			C128,263.172,120.832,256.004,112,256.004z M96,352.004H32v-64h64V352.004z"/>
	</g>
</g>
<g>
	<g>
		<path d="M208,32.004h-32c-8.832,0-16,7.168-16,16c0,8.832,7.168,16,16,16h32c8.832,0,16-7.168,16-16
			C224,39.172,216.832,32.004,208,32.004z"/>
	</g>
</g>
<g>
	<g>
		<path d="M208,96.004h-32c-8.832,0-16,7.168-16,16c0,8.832,7.168,16,16,16h32c8.832,0,16-7.168,16-16
			C224,103.172,216.832,96.004,208,96.004z"/>
	</g>
</g>
<g>
	<g>
		<path d="M112,160.004H80c-8.832,0-16,7.168-16,16c0,8.832,7.168,16,16,16h16v16c0,8.832,7.168,16,16,16c8.832,0,16-7.168,16-16
			v-32C128,167.172,120.832,160.004,112,160.004z"/>
	</g>
</g>
<g>
</g>
<g>
</g>
<g>
</g>
<g>
</g>
<g>
</g>
<g>
</g>
<g>
</g>
<g>
</g>
<g>
</g>
<g>
</g>
<g>
</g>
<g>
</g>
<g>
</g>
<g>
</g>
<g>
</g>
</svg>
